#!OML:ASF I:\Random Stuff\random\construction\7_22_03\Session 2\subj1.ASF
:FULLY-SPECIFIED
:DEGREES
1010
root -9.8743 17.6122 -3.55484 15.8259 103.392 11.4386
lowerback 4.2775 -1.1432 0.773661
upperback 0.44615 -1.36203 3.32287
thorax -1.87718 -0.651074 3.06417
lowerneck -12.2829 -12.059 -11.211
upperneck 28.4721 -16.3683 8.07492
head 13.2513 -7.25284 2.3915
rclavicle 1.13307e-014 -1.19271e-014
rhumerus -36.6955 17.0595 -82.3849
rradius 41.2037
rwrist 3.93464
rhand -11.0526 19.7896
rfingers 7.12502
rthumb 14.9698 -9.64934
lclavicle 1.13307e-014 -1.19271e-014
lhumerus -33.9278 -8.74611 94.824
lradius 36.0621
lwrist 17.4613
lhand -21.8534 52.1012
lfingers 7.12502
lthumb 4.55031 82.0323
rfemur -8.02011 2.77532 24.3886
rtibia 18.223
rfoot -10.3758 -29.3073
rtoes 2.10603
lfemur -13.1343 -11.4953 -12.1967
ltibia 25.2733
lfoot -15.9583 3.28617
ltoes -29.9185
1011
root -9.92091 17.6141 -3.6208 16.1294 103.25 11.7722
lowerback 4.46396 -1.17331 0.500159
upperback 0.431727 -1.41337 3.2872
thorax -1.98816 -0.675112 3.18936
lowerneck -12.3088 -12.0129 -11.5521
upperneck 28.3658 -16.3068 8.36254
head 13.2725 -7.23204 2.56138
rclavicle 4.60187e-014 -3.18055e-014
rhumerus -36.5938 14.9301 -82.2637
rradius 38.4532
rwrist 4.41537
rhand -11.4133 19.6622
rfingers 7.12502
rthumb 14.6223 -9.80225
lclavicle 4.60187e-014 -3.18055e-014
lhumerus -33.7699 -8.48879 94.8812
lradius 35.6297
lwrist 17.5818
lhand -21.8944 52.1033
lfingers 7.12502
lthumb 4.51071 82.0352
rfemur -8.33464 2.20674 24.1305
rtibia 18.5098
rfoot -10.0122 -28.6346
rtoes 0.959975
lfemur -13.2082 -11.2757 -12.408
ltibia 25.3362
lfoot -15.8987 3.14226
ltoes -29.2539
1012
root -9.97422 17.615 -3.68742 16.352 103.067 11.9972
lowerback 4.61758 -1.17228 0.219844
upperback 0.462072 -1.42737 3.22942
thorax -2.0367 -0.681015 3.29189
lowerneck -12.4449 -12.0062 -11.5871
upperneck 28.1708 -16.2913 8.41071
head 13.2257 -7.23002 2.57793
rclavicle 6.16232e-015 -4.69132e-014
rhumerus -36.4188 12.6809 -81.9286
rradius 35.8604
rwrist 4.88923
rhand -13.1612 20.1156
rfingers 7.12502
rthumb 12.9378 -9.46335
lclavicle 6.16232e-015 -4.69132e-014
lhumerus -33.5616 -8.48243 94.9784
lradius 35.2101
lwrist 17.6776
lhand -21.8845 52.0976
lfingers 7.12502
lthumb 4.52032 82.0294
rfemur -8.7278 1.7514 23.83
rtibia 18.8346
rfoot -9.46149 -28.0624
rtoes -0.618086
lfemur -13.3711 -10.703 -12.6653
ltibia 25.43
lfoot -15.8311 2.71663
ltoes -28.4216
1013
root -10.0313 17.6172 -3.75609 16.6651 102.857 12.3144
lowerback 4.71029 -1.18263 -0.0679168
upperback 0.549556 -1.45921 3.1853
thorax -1.9906 -0.696565 3.41136
lowerneck -12.6016 -11.9485 -11.856
upperneck 28.0146 -16.2545 8.82121
head 13.2615 -7.19448 2.77224
rclavicle -1.72943e-014 3.81667e-014
rhumerus -36.2075 10.459 -81.433
rradius 33.4703
rwrist 5.38338
rhand -15.1606 20.5023
rfingers 7.12502
rthumb 11.0099 -9.18894
lclavicle -1.72943e-014 3.81667e-014
lhumerus -33.3985 -8.51926 95.0396
lradius 34.9404
lwrist 17.6186
lhand -21.6106 51.6679
lfingers 7.12502
lthumb 4.78477 81.5938
rfemur -9.17808 1.37385 23.543
rtibia 19.2644
rfoot -9.0653 -27.5693
rtoes -1.72199
lfemur -13.5355 -10.1781 -12.9163
ltibia 25.4944
lfoot -15.7676 2.349
ltoes -27.7095
1014
root -10.0923 17.6215 -3.82616 16.5817 102.659 12.1765
lowerback 4.83725 -1.24801 -0.476208
upperback 0.586353 -1.57141 3.12214
thorax -2.00769 -0.751273 3.58617
lowerneck -12.6277 -11.8859 -11.6207
upperneck 27.6221 -16.1677 8.7011
head 13.0534 -7.16616 2.70243
rclavicle -9.79014e-015 7.95139e-015
rhumerus -36.0808 8.15414 -80.7762
rradius 31.3359
rwrist 5.92271
rhand -15.3352 19.8427
rfingers 7.12502
rthumb 10.8414 -9.8575
lclavicle -9.79014e-015 7.95139e-015
lhumerus -33.3904 -8.40027 95.0401
lradius 34.8498
lwrist 17.4648
lhand -21.61 51.4284
lfingers 7.12502
lthumb 4.78534 81.3543
rfemur -9.74655 0.85064 23.1481
rtibia 19.793
rfoot -8.80317 -26.9831
rtoes -2.68599
lfemur -13.7144 -10.2094 -13.2427
ltibia 25.4889
lfoot -15.7542 2.402
ltoes -26.9992
1015
root -10.159 17.6199 -3.89535 15.986 102.45 11.4855
lowerback 5.04103 -1.30911 -0.969146
upperback 0.582908 -1.6852 3.00467
thorax -2.10694 -0.805495 3.75611
lowerneck -12.6068 -11.8287 -11.4756
upperneck 27.2747 -16.1147 8.72271
head 12.8857 -7.1433 2.69736
rclavicle -1.71949e-014 2.38542e-014
rhumerus -36.1109 6.08211 -80.112
rradius 29.5982
rwrist 6.22657
rhand -15.0903 18.979
rfingers 7.12502
rthumb 11.0777 -10.7086
lclavicle -1.71949e-014 2.38542e-014
lhumerus -33.4593 -8.42075 95.0566
lradius 34.8649
lwrist 17.4617
lhand -21.8639 51.5387
lfingers 7.12502
lthumb 4.54019 81.47
rfemur -10.4116 0.270896 22.6268
rtibia 20.3829
rfoot -8.47758 -26.3511
rtoes -4.27089
lfemur -13.8984 -10.6515 -13.6787
ltibia 25.4168
lfoot -15.7601 2.83054
ltoes -26.4818
1016
root -10.2289 17.6113 -3.96315 15.905 102.158 11.3597
lowerback 5.29142 -1.34691 -1.39936
upperback 0.629631 -1.76353 2.94378
thorax -2.18202 -0.841687 3.94818
lowerneck -12.5746 -11.7067 -11.6186
upperneck 26.8657 -15.9274 8.8542
head 12.7163 -7.08025 2.80245
rclavicle 1.01877e-014 2.98177e-014
rhumerus -36.1949 4.55821 -79.5112
rradius 28.2673
rwrist 6.30718
rhand -15.3036 18.5973
rfingers 7.12502
rthumb 10.8719 -11.1013
lclavicle 1.01877e-014 2.98177e-014
lhumerus -33.4067 -8.35661 95.0513
lradius 34.8563
lwrist 17.4687
lhand -21.9252 51.504
lfingers 7.12502
lthumb 4.48103 81.4366
rfemur -11.0514 -0.160408 22.2155
rtibia 20.9651
rfoot -8.22269 -25.7014
rtoes -5.64834
lfemur -14.0593 -10.0801 -14.0545
ltibia 25.2816
lfoot -15.5914 2.59455
ltoes -27.1058
1017
root -10.3042 17.6062 -4.03063 16.5543 101.773 11.9205
lowerback 5.5255 -1.37276 -1.76972
upperback 0.679914 -1.82131 2.94746
thorax -2.24475 -0.867262 4.17222
lowerneck -12.7412 -11.6096 -11.466
upperneck 26.5684 -15.7624 8.72437
head 12.5798 -7.01843 2.74981
rclavicle -3.54831e-014 3.02153e-014
rhumerus -36.2566 3.30598 -78.9012
rradius 27.2303
rwrist 6.44696
rhand -15.1355 18.3258
rfingers 7.12502
rthumb 11.0341 -11.3642
lclavicle -3.54831e-014 3.02153e-014
lhumerus -33.3391 -8.20523 95.0104
lradius 34.9256
lwrist 17.5569
lhand -21.8777 51.5964
lfingers 7.12502
lthumb 4.52691 81.528
rfemur -11.7182 -0.430942 21.9283
rtibia 21.4383
rfoot -8.02357 -25.0022
rtoes -6.24869
lfemur -14.2624 -9.3965 -14.3141
ltibia 25.1065
lfoot -15.2897 2.55746
ltoes -28.6736
1018
root -10.3853 17.6149 -4.10037 17.432 101.343 12.5909
lowerback 5.69019 -1.36291 -2.07223
upperback 0.693186 -1.83092 2.89645
thorax -2.31443 -0.869335 4.29641
lowerneck -12.9395 -11.5101 -11.4273
upperneck 26.4027 -15.6338 8.808
head 12.5418 -6.95071 2.78737
rclavicle 2.59911e-014 -1.11319e-014
rhumerus -36.3825 2.07303 -78.3387
rradius 26.5885
rwrist 6.94501
rhand -14.6226 18.156
rfingers 7.12502
rthumb 11.5287 -11.507
lclavicle 2.59911e-014 -1.11319e-014
lhumerus -33.3122 -8.25095 94.9364
lradius 35.0337
lwrist 17.7511
lhand -21.9655 51.7417
lfingers 7.12502
lthumb 4.44212 81.6752
rfemur -12.4248 -0.628962 21.6354
rtibia 21.6966
rfoot -7.79387 -24.2458
rtoes -6.28595
lfemur -14.5931 -8.9442 -14.533
ltibia 24.9389
lfoot -15.0278 2.57649
ltoes -28.7536
1019
root -10.4672 17.6305 -4.17065 18.64 100.852 13.5765
lowerback 5.84683 -1.31712 -2.3031
upperback 0.703026 -1.78986 2.81959
thorax -2.39086 -0.846484 4.34924
lowerneck -13.139 -11.4595 -11.4188
upperneck 26.1912 -15.5934 8.98258
head 12.5088 -6.9153 2.84661
rclavicle 1.69464e-014 -6.55989e-015
rhumerus -36.5954 1.07802 -77.8706
rradius 26.2975
rwrist 7.65137
rhand -13.9186 18.1979
rfingers 7.12502
rthumb 12.2076 -11.4258
lclavicle 1.69464e-014 -6.55989e-015
lhumerus -33.2818 -8.33588 94.8239
lradius 35.0853
lwrist 17.9715
lhand -22.173 51.7389
lfingers 7.12502
lthumb 4.24174 81.6764
rfemur -13.0228 -0.684672 21.374
rtibia 21.6881
rfoot -7.50735 -23.545
rtoes -6.13322
lfemur -14.9295 -8.71347 -14.7005
ltibia 24.8049
lfoot -14.8448 2.7384
ltoes -27.8642
1020
root -10.547 17.6452 -4.23873 20.639 100.255 15.377
lowerback 5.97004 -1.25185 -2.49229
upperback 0.716572 -1.71858 2.78487
thorax -2.44777 -0.808736 4.41883
lowerneck -13.2235 -11.3566 -11.3629
upperneck 25.8416 -15.4585 9.05602
head 12.3707 -6.85488 2.8835
rclavicle 6.31141e-015 -1.39149e-015
rhumerus -36.7733 0.647309 -77.5587
rradius 25.9975
rwrist 8.15255
rhand -13.154 18.3232
rfingers 7.12502
rthumb 12.9448 -11.2553
lclavicle 6.31141e-015 -1.39149e-015
lhumerus -33.3511 -8.41861 94.6926
lradius 35.214
lwrist 18.3743
lhand -22.2729 51.8809
lfingers 7.12502
lthumb 4.14526 81.8204
rfemur -13.5096 -0.557278 21.2257
rtibia 21.4479
rfoot -7.0882 -22.9006
rtoes -6.30977
lfemur -15.2181 -8.39114 -14.7693
ltibia 24.7092
lfoot -14.7262 3.03722
ltoes -27.4821
1021
root -10.6257 17.6606 -4.30534 23.7808 99.6061 18.2898
lowerback 6.00801 -1.17239 -2.57692
upperback 0.708353 -1.61978 2.775
thorax -2.48475 -0.758087 4.45054
lowerneck -13.2638 -11.2237 -11.3877
upperneck 25.6272 -15.3096 9.26563
head 12.2978 -6.77491 2.98969
rclavicle -1.78906e-014 -9.44227e-015
rhumerus -36.9765 0.869364 -77.5292
rradius 25.8447
rwrist 8.21114
rhand -12.4033 18.451
rfingers 7.12502
rthumb 13.6684 -11.0802
lclavicle -1.78906e-014 -9.44227e-015
lhumerus -33.4742 -8.5388 94.5628
lradius 35.3708
lwrist 18.8503
lhand -22.3041 52.147
lfingers 7.12502
lthumb 4.11514 82.087
rfemur -13.9911 -0.432723 21.2276
rtibia 21.053
rfoot -6.50917 -22.1327
rtoes -7.26658
lfemur -15.5311 -8.1684 -14.6783
ltibia 24.6408
lfoot -14.6253 3.57181
ltoes -27.3586
1022
root -10.7075 17.6748 -4.36907 27.5156 98.9306 21.7285
lowerback 6.02909 -1.07958 -2.65626
upperback 0.666468 -1.50343 2.75476
thorax -2.54947 -0.697893 4.46712
lowerneck -13.3448 -11.1111 -11.4479
upperneck 25.5138 -15.1715 9.43089
head 12.2734 -6.70355 3.0812
rclavicle 2.91095e-014 2.93207e-014
rhumerus -37.2638 1.45746 -77.7016
rradius 26.0973
rwrist 7.93549
rhand -11.7864 18.5978
rfingers 7.12502
rthumb 14.2629 -10.8924
lclavicle 2.91095e-014 2.93207e-014
lhumerus -33.5244 -8.6382 94.426
lradius 35.3889
lwrist 19.2473
lhand -22.3577 52.3999
lfingers 7.12502
lthumb 4.06336 82.3409
rfemur -14.5056 -0.307063 21.2373
rtibia 20.5605
rfoot -5.9633 -21.1914
rtoes -8.26971
lfemur -15.9578 -7.97497 -14.5508
ltibia 24.6146
lfoot -14.6091 4.10782
ltoes -26.7418
